# Blender 4.3.0
# www.blender.org
mtllib Space_Drillv3.mtl
o Cube
v -0.500000 -0.500000 0.500000
v -0.500000 0.500000 0.500000
v -0.500000 -0.500000 -0.500000
v -0.500000 0.500000 -0.500000
v 0.500000 -0.500000 0.500000
v 0.500000 0.500000 0.500000
v 0.500000 -0.500000 -0.500000
v 0.500000 0.500000 -0.500000
l 3 1
l 1 2
l 2 4
l 4 3
l 7 3
l 4 8
l 8 7
l 5 7
l 8 6
l 6 5
l 1 5
l 6 2
o Cylinder.002
v -0.000000 -0.500000 -0.281278
v 0.000000 0.500000 -0.002420
v 0.198893 -0.500000 -0.198893
v 0.001711 0.500000 -0.001711
v 0.281278 -0.500000 0.000000
v 0.002420 0.500000 -0.000000
v 0.198893 -0.500000 0.198893
v 0.001711 0.500000 0.001711
v -0.000000 -0.500000 0.281278
v 0.000000 0.500000 0.002420
v -0.198893 -0.500000 0.198893
v -0.001711 0.500000 0.001711
v -0.281278 -0.500000 0.000000
v -0.002420 0.500000 -0.000000
v -0.198893 -0.500000 -0.198893
v -0.001711 0.500000 -0.001711
v 0.000000 -0.244283 -0.273023
v 0.000000 0.118401 -0.297461
v 0.000000 0.352939 -0.144751
v 0.102354 0.352939 -0.102354
v 0.210337 0.118401 -0.210337
v 0.193056 -0.244283 -0.193056
v 0.144751 0.352939 -0.000000
v 0.297461 0.118401 -0.000000
v 0.273023 -0.244283 0.000000
v 0.102354 0.352939 0.102354
v 0.210337 0.118401 0.210337
v 0.193056 -0.244283 0.193056
v 0.000000 0.352939 0.144751
v 0.000000 0.118401 0.297461
v 0.000000 -0.244283 0.273023
v -0.102354 0.352939 0.102354
v -0.210337 0.118401 0.210337
v -0.193056 -0.244283 0.193056
v -0.144751 0.352939 -0.000000
v -0.297461 0.118401 -0.000000
v -0.273023 -0.244283 0.000000
v -0.102354 0.352939 -0.102354
v -0.210337 0.118401 -0.210337
v -0.193056 -0.244283 -0.193056
v 0.000000 -0.289057 -0.396649
v 0.000000 -0.080753 -0.378818
v 0.267865 -0.080753 -0.267865
v 0.280473 -0.289057 -0.280473
v 0.378818 -0.080753 0.000000
v 0.396649 -0.289057 0.000000
v 0.267865 -0.080753 0.267865
v 0.280473 -0.289057 0.280473
v 0.000000 -0.080753 0.378818
v 0.000000 -0.289057 0.396649
v -0.267865 -0.080753 0.267865
v -0.280473 -0.289057 0.280473
v -0.378818 -0.080753 0.000000
v -0.396649 -0.289057 0.000000
v -0.267865 -0.080753 -0.267865
v -0.280473 -0.289057 -0.280473
vn 0.2853 0.6666 -0.6887
vn 0.6887 0.6666 -0.2853
vn 0.6887 0.6666 0.2853
vn 0.2853 0.6666 0.6887
vn -0.2853 0.6666 0.6887
vn -0.6887 0.6666 0.2853
vn -0.0000 1.0000 -0.0000
vn -0.6887 0.6666 -0.2853
vn -0.2853 0.6666 -0.6887
vn -0.0000 -1.0000 -0.0000
vn -0.3825 0.0298 -0.9235
vn -0.3580 0.3531 -0.8644
vn -0.7917 0.5155 -0.3279
vn -0.9235 0.0298 -0.3825
vn -0.8644 0.3531 -0.3580
vn -0.7917 0.5155 0.3279
vn -0.9235 0.0298 0.3825
vn -0.8644 0.3531 0.3580
vn -0.3279 0.5155 0.7917
vn -0.3825 0.0298 0.9235
vn -0.3580 0.3531 0.8644
vn 0.3279 0.5155 0.7917
vn 0.3825 0.0298 0.9235
vn 0.3580 0.3531 0.8644
vn 0.7917 0.5155 0.3279
vn 0.9235 0.0298 0.3825
vn 0.8644 0.3531 0.3580
vn 0.7917 0.5155 -0.3279
vn 0.9235 0.0298 -0.3825
vn 0.8644 0.3531 -0.3580
vn 0.3279 0.5155 -0.7917
vn 0.3825 0.0298 -0.9235
vn 0.3580 0.3531 -0.8644
vn -0.3279 0.5155 -0.7917
vn -0.1397 -0.9310 0.3372
vn 0.3815 0.0788 -0.9210
vn -0.3372 -0.9310 0.1397
vn 0.9210 0.0788 -0.3815
vn -0.3372 -0.9310 -0.1397
vn 0.9210 0.0788 0.3815
vn -0.1397 -0.9310 -0.3372
vn 0.3815 0.0788 0.9210
vn 0.1397 -0.9310 -0.3372
vn -0.3815 0.0788 0.9210
vn 0.3372 -0.9310 -0.1397
vn -0.9210 0.0788 0.3815
vn 0.3372 -0.9310 0.1397
vn -0.9210 0.0788 -0.3815
vn 0.1397 -0.9310 0.3372
vn -0.3815 0.0788 -0.9210
vn 0.6887 0.6665 0.2853
vt 1.000000 1.000000
vt 0.875000 0.916667
vt 1.000000 0.916667
vt 0.875000 1.000000
vt 0.750000 0.916667
vt 0.750000 1.000000
vt 0.625000 0.916667
vt 0.625000 1.000000
vt 0.500000 0.916667
vt 0.500000 1.000000
vt 0.375000 0.916667
vt 0.375000 1.000000
vt 0.250000 0.916667
vt 0.010000 0.250000
vt 0.250000 0.010000
vt 0.490000 0.250000
vt 0.125000 1.000000
vt 0.125000 0.916667
vt 0.000000 0.916667
vt 0.919706 0.080294
vt 0.580294 0.080294
vt 0.580294 0.419706
vt 0.125000 0.583333
vt 0.000000 0.500000
vt 0.125000 0.500000
vt 0.125000 0.666667
vt 0.000000 0.638889
vt 0.125000 0.638889
vt 0.250000 0.583333
vt 0.250000 0.500000
vt 0.250000 0.638889
vt 0.375000 0.666667
vt 0.375000 0.583333
vt 0.375000 0.500000
vt 0.375000 0.638889
vt 0.500000 0.583333
vt 0.500000 0.500000
vt 0.500000 0.638889
vt 0.625000 0.666667
vt 0.625000 0.583333
vt 0.625000 0.500000
vt 0.625000 0.638889
vt 0.750000 0.583333
vt 0.750000 0.500000
vt 0.750000 0.638889
vt 0.875000 0.666667
vt 0.875000 0.583333
vt 0.875000 0.500000
vt 0.875000 0.638889
vt 1.000000 0.666667
vt 1.000000 0.583333
vt 1.000000 0.500000
vt 1.000000 0.638889
vt 0.000000 0.666667
vt 0.875000 0.611111
vt 1.000000 0.611111
vt 0.750000 0.611111
vt 0.625000 0.611111
vt 0.500000 0.611111
vt 0.375000 0.611111
vt 0.250000 0.611111
vt 0.125000 0.611111
vt 0.000000 0.583333
vt 0.000000 0.611111
vt 0.250000 1.000000
vt 0.419706 0.419706
vt 0.250000 0.490000
vt 0.080294 0.419706
vt 0.080294 0.080294
vt 0.419706 0.080294
vt 0.000000 1.000000
vt 0.750000 0.490000
vt 0.919706 0.419706
vt 0.990000 0.250000
vt 0.750000 0.010000
vt 0.510000 0.250000
vt 0.250000 0.666667
vt 0.500000 0.666667
vt 0.750000 0.666667
s 0
f 10/1/1 28/2/1 27/3/1
f 12/4/2 31/5/2 28/2/2
f 14/6/3 34/7/3 31/5/3
f 16/8/4 37/9/4 34/7/4
f 18/10/5 40/11/5 37/9/5
f 20/12/6 43/13/6 40/11/6
f 22/14/7 18/15/7 14/16/7
f 43/13/8 24/17/8 46/18/8
f 24/17/9 27/19/9 46/18/9
f 15/20/10 19/21/10 23/22/10
f 48/23/11 9/24/11 23/25/11
f 47/26/12 50/27/12 63/28/12
f 47/26/13 43/13/13 46/18/13
f 45/29/14 23/25/14 21/30/14
f 61/31/15 47/26/15 63/28/15
f 43/13/16 41/32/16 40/11/16
f 42/33/17 21/30/17 19/34/17
f 41/32/18 61/31/18 59/35/18
f 41/32/19 37/9/19 40/11/19
f 39/36/20 19/34/20 17/37/20
f 57/38/21 41/32/21 59/35/21
f 37/9/22 35/39/22 34/7/22
f 36/40/23 17/37/23 15/41/23
f 35/39/24 57/38/24 55/42/24
f 35/39/25 31/5/25 34/7/25
f 33/43/26 15/41/26 13/44/26
f 53/45/27 35/39/27 55/42/27
f 31/5/28 29/46/28 28/2/28
f 30/47/29 13/44/29 11/48/29
f 29/46/30 53/45/30 51/49/30
f 26/50/31 28/2/31 29/46/31
f 25/51/32 11/48/32 9/52/32
f 50/53/33 29/46/33 51/49/33
f 26/54/34 46/18/34 27/19/34
f 25/51/35 52/55/35 30/47/35
f 50/53/36 52/55/36 49/56/36
f 52/55/37 33/43/37 30/47/37
f 51/49/38 54/57/38 52/55/38
f 54/57/39 36/40/39 33/43/39
f 53/45/40 56/58/40 54/57/40
f 56/58/41 39/36/41 36/40/41
f 55/42/42 58/59/42 56/58/42
f 58/59/43 42/33/43 39/36/43
f 57/38/44 60/60/44 58/59/44
f 60/60/45 45/29/45 42/33/45
f 59/35/46 62/61/46 60/60/46
f 62/61/47 48/23/47 45/29/47
f 61/31/48 64/62/48 62/61/48
f 64/62/49 25/63/49 48/23/49
f 63/28/50 49/64/50 64/62/50
f 10/1/1 12/4/1 28/2/1
f 12/4/2 14/6/2 31/5/2
f 14/6/51 16/8/51 34/7/51
f 16/8/4 18/10/4 37/9/4
f 18/10/5 20/12/5 40/11/5
f 20/12/6 22/65/6 43/13/6
f 14/16/7 12/66/7 10/67/7
f 10/67/7 24/68/7 22/14/7
f 22/14/7 20/69/7 18/15/7
f 18/15/7 16/70/7 14/16/7
f 14/16/7 10/67/7 22/14/7
f 43/13/8 22/65/8 24/17/8
f 24/17/9 10/71/9 27/19/9
f 23/22/10 9/72/10 11/73/10
f 11/73/10 13/74/10 15/20/10
f 15/20/10 17/75/10 19/21/10
f 19/21/10 21/76/10 23/22/10
f 23/22/10 11/73/10 15/20/10
f 48/23/11 25/63/11 9/24/11
f 47/26/12 26/54/12 50/27/12
f 47/26/13 44/77/13 43/13/13
f 45/29/14 48/23/14 23/25/14
f 61/31/15 44/77/15 47/26/15
f 43/13/16 44/77/16 41/32/16
f 42/33/17 45/29/17 21/30/17
f 41/32/18 44/77/18 61/31/18
f 41/32/19 38/78/19 37/9/19
f 39/36/20 42/33/20 19/34/20
f 57/38/21 38/78/21 41/32/21
f 37/9/22 38/78/22 35/39/22
f 36/40/23 39/36/23 17/37/23
f 35/39/24 38/78/24 57/38/24
f 35/39/25 32/79/25 31/5/25
f 33/43/26 36/40/26 15/41/26
f 53/45/27 32/79/27 35/39/27
f 31/5/28 32/79/28 29/46/28
f 30/47/29 33/43/29 13/44/29
f 29/46/30 32/79/30 53/45/30
f 26/50/31 27/3/31 28/2/31
f 25/51/32 30/47/32 11/48/32
f 50/53/33 26/50/33 29/46/33
f 26/54/34 47/26/34 46/18/34
f 25/51/35 49/56/35 52/55/35
f 50/53/36 51/49/36 52/55/36
f 52/55/37 54/57/37 33/43/37
f 51/49/38 53/45/38 54/57/38
f 54/57/39 56/58/39 36/40/39
f 53/45/40 55/42/40 56/58/40
f 56/58/41 58/59/41 39/36/41
f 55/42/42 57/38/42 58/59/42
f 58/59/43 60/60/43 42/33/43
f 57/38/44 59/35/44 60/60/44
f 60/60/45 62/61/45 45/29/45
f 59/35/46 61/31/46 62/61/46
f 62/61/47 64/62/47 48/23/47
f 61/31/48 63/28/48 64/62/48
f 64/62/49 49/64/49 25/63/49
f 63/28/50 50/27/50 49/64/50
