# Blender 4.3.2
# www.blender.org
o Attachement
v 0.000000 -0.000000 -0.050000
v 0.000000 0.500000 -0.050000
v 0.035355 -0.000000 -0.035355
v 0.035355 0.500000 -0.035355
v 0.050000 0.000000 0.000000
v 0.050000 0.500000 -0.000000
v 0.035355 0.000000 0.035355
v 0.035355 0.500000 0.035355
v 0.000000 0.000000 0.050000
v 0.000000 0.500000 0.050000
v -0.035355 0.000000 0.035355
v -0.035355 0.500000 0.035355
v -0.050000 0.000000 0.000000
v -0.050000 0.500000 -0.000000
v -0.035355 -0.000000 -0.035355
v -0.035355 0.500000 -0.035355
vn 0.3827 -0.0000 -0.9239
vn 0.9239 -0.0000 -0.3827
vn 0.9239 -0.0000 0.3827
vn 0.3827 -0.0000 0.9239
vn -0.3827 -0.0000 0.9239
vn -0.9239 -0.0000 0.3827
vn -0.0000 1.0000 -0.0000
vn -0.9239 -0.0000 -0.3827
vn -0.3827 -0.0000 -0.9239
vn -0.0000 -1.0000 -0.0000
vt 1.000000 1.000000
vt 0.875000 0.500000
vt 1.000000 0.500000
vt 0.875000 1.000000
vt 0.750000 0.500000
vt 0.750000 1.000000
vt 0.625000 0.500000
vt 0.625000 1.000000
vt 0.500000 0.500000
vt 0.500000 1.000000
vt 0.375000 0.500000
vt 0.375000 1.000000
vt 0.250000 0.500000
vt 0.010000 0.250000
vt 0.250000 0.010000
vt 0.490000 0.250000
vt 0.250000 1.000000
vt 0.125000 0.500000
vt 0.125000 1.000000
vt 0.000000 0.500000
vt 0.919706 0.080294
vt 0.580294 0.080294
vt 0.580294 0.419706
vt 0.419706 0.419706
vt 0.250000 0.490000
vt 0.080294 0.419706
vt 0.080294 0.080294
vt 0.419706 0.080294
vt 0.000000 1.000000
vt 0.750000 0.490000
vt 0.919706 0.419706
vt 0.990000 0.250000
vt 0.750000 0.010000
vt 0.510000 0.250000
s 1
f 2/1/1 3/2/1 1/3/1
f 4/4/2 5/5/2 3/2/2
f 6/6/3 7/7/3 5/5/3
f 8/8/4 9/9/4 7/7/4
f 10/10/5 11/11/5 9/9/5
f 12/12/6 13/13/6 11/11/6
f 14/14/7 10/15/7 6/16/7
f 14/17/8 15/18/8 13/13/8
f 16/19/9 1/20/9 15/18/9
f 7/21/10 11/22/10 15/23/10
f 2/1/1 4/4/1 3/2/1
f 4/4/2 6/6/2 5/5/2
f 6/6/3 8/8/3 7/7/3
f 8/8/4 10/10/4 9/9/4
f 10/10/5 12/12/5 11/11/5
f 12/12/6 14/17/6 13/13/6
f 6/16/7 4/24/7 2/25/7
f 2/25/7 16/26/7 14/14/7
f 14/14/7 12/27/7 10/15/7
f 10/15/7 8/28/7 6/16/7
f 6/16/7 2/25/7 14/14/7
f 14/17/8 16/19/8 15/18/8
f 16/19/9 2/29/9 1/20/9
f 15/23/10 1/30/10 3/31/10
f 3/31/10 5/32/10 7/21/10
f 7/21/10 9/33/10 11/22/10
f 11/22/10 13/34/10 15/23/10
f 15/23/10 3/31/10 7/21/10
o Grappler
v 0.000000 -0.000000 -0.125000
v 0.000000 0.000000 0.125000
v -0.250000 -0.250000 0.125000
v -0.250000 -0.250000 -0.125000
v 0.250000 -0.250000 -0.125000
v 0.250000 -0.250000 0.125000
v 0.000000 -0.137995 -0.125000
v 0.000000 -0.137995 0.125000
v -0.119871 -0.500000 0.125000
v -0.086066 0.000000 0.125000
v -0.119871 -0.500000 -0.125000
v -0.086066 -0.000000 -0.125000
v 0.119871 -0.500000 0.125000
v 0.086066 0.000000 0.125000
v 0.119871 -0.500000 -0.125000
v 0.086066 -0.000000 -0.125000
v 0.062500 -0.411058 0.125000
v 0.062500 -0.500000 0.125000
v -0.062500 -0.500000 -0.125000
v -0.062500 -0.411058 -0.125000
v -0.062500 -0.411058 0.125000
v -0.062500 -0.500000 0.125000
v 0.062500 -0.411058 -0.125000
v 0.062500 -0.500000 -0.125000
v 0.116125 -0.339735 -0.121499
v 0.114460 -0.205509 -0.119517
v 0.249976 -0.250000 -0.124997
v -0.116125 -0.339735 0.121499
v -0.114460 -0.205509 0.119517
v -0.249976 -0.250000 0.124997
v 0.114460 -0.205509 0.119517
v 0.116125 -0.339735 0.121499
v 0.249976 -0.250000 0.124997
v -0.114460 -0.205509 -0.119517
v -0.116125 -0.339735 -0.121499
v -0.249976 -0.250000 -0.124997
vn -0.0000 1.0000 -0.0000
vn 0.8362 0.5484 -0.0000
vn -0.8870 -0.4617 -0.0000
vn 0.5081 -0.8613 -0.0000
vn -0.0000 -1.0000 -0.0000
vn -0.5081 -0.8613 -0.0000
vn 0.7993 0.6010 -0.0000
vn 1.0000 -0.0000 -0.0000
vn -1.0000 -0.0000 -0.0000
vn 0.9999 -0.0124 -0.0000
vn -0.9999 -0.0124 -0.0000
vn -0.7993 0.6010 -0.0000
vn 0.8870 -0.4617 -0.0000
vn -0.8362 0.5484 -0.0000
vn -0.0000 -0.0000 1.0000
vn 0.1029 -0.0670 -0.9924
vn 0.1029 -0.0670 0.9924
vn -0.1029 -0.0670 -0.9924
vn -0.1031 0.0532 -0.9932
vn -0.0000 -0.0000 -1.0000
vn -0.0316 -0.0042 -0.9995
vn -0.0000 -0.0179 -0.9998
vn -0.0651 -0.0000 0.9979
vn 0.0525 0.0394 0.9978
vn 0.0651 -0.0000 0.9979
vn -0.0525 0.0394 0.9978
vn 0.0357 0.0143 0.9993
vn 0.1419 -0.3168 0.9378
vn -0.0357 0.0143 0.9993
vn -0.1419 -0.3168 0.9378
vn 0.0381 0.0295 -0.9988
vn -0.0651 -0.0000 -0.9979
vn -0.0027 0.0080 -1.0000
vn 0.1056 0.0790 -0.9913
vn 0.0825 0.0476 -0.9955
vn 0.0027 0.0081 -1.0000
vn 0.0651 -0.0000 -0.9979
vn -0.0381 0.0295 -0.9988
vn 0.1117 -0.2207 -0.9689
vn -0.1117 -0.2207 -0.9689
vt 0.793033 0.500000
vt 0.750000 0.750000
vt 0.750000 0.500000
vt 0.706967 0.500000
vt 0.500000 0.750000
vt 0.500000 0.500000
vt 0.500000 0.250000
vt 0.206967 0.750000
vt 0.500000 0.000000
vt 0.706967 0.750000
vt 0.625000 0.049507
vt 0.471261 0.200493
vt 0.625000 0.200493
vt 0.293033 0.750000
vt 0.281250 0.500000
vt 0.293033 0.500000
vt 0.875000 0.549507
vt 0.721261 0.700493
vt 0.875000 0.700493
vt 0.218750 0.500000
vt 0.218750 0.750000
vt 0.223149 0.549507
vt 0.286612 0.700493
vt 0.286612 0.549507
vt 0.585608 0.225064
vt 0.399703 0.024936
vt 0.399703 0.225064
vt 0.585608 0.524936
vt 0.399703 0.725064
vt 0.585608 0.725064
vt 0.375000 0.200493
vt 0.471261 0.049507
vt 0.375000 0.049507
vt 0.526851 0.700493
vt 0.721261 0.549507
vt 0.526851 0.549507
vt 0.463388 0.549507
vt 0.463388 0.700493
vt 0.625000 0.250000
vt 0.625000 0.000000
vt 0.793033 0.750000
vt 0.000000 0.000000
vt 0.500000 0.250010
vt 0.625000 0.331967
vt 0.625000 0.918033
vt 0.500000 1.000000
vt 0.500000 0.999990
vt 0.625000 0.418033
vt 0.500000 0.499990
vt 0.206967 0.500000
vt 0.281250 0.750000
vt 0.375000 0.418033
vt 0.588388 0.375000
vt 0.223149 0.700493
vt 0.585608 0.024936
vt 0.399703 0.524936
vt 0.465299 0.321312
vt 0.625000 0.375000
vt 0.375000 0.406250
vt 0.442862 0.406250
vt 0.465299 0.428688
vt 0.500000 0.286612
vt 0.534034 0.429355
s 1
f 28/35/11 18/36/11 17/37/11
f 32/38/12 22/39/12 21/40/12
f 20/41/13 25/42/13 19/43/13
f 17/37/11 30/44/11 32/38/11
f 24/45/14 50/46/14 23/47/14
f 29/48/15 40/49/15 31/50/15
f 23/51/16 47/52/16 24/53/16
f 25/42/15 35/54/15 38/55/15
f 51/56/17 37/57/17 36/58/17
f 36/59/18 38/60/18 35/61/18
f 39/62/19 34/63/19 33/64/19
f 51/65/20 45/66/20 44/67/20
f 48/68/21 42/69/21 41/70/21
f 48/68/22 39/71/22 33/72/22
f 31/50/23 22/39/23 29/48/23
f 28/73/24 19/43/24 26/74/24
f 28/35/11 26/75/11 18/36/11
s 0
f 24/76/25 22/76/25 30/76/25
s 1
f 32/38/12 30/44/12 22/39/12
f 52/77/26 20/41/26 28/78/26
f 26/79/27 19/80/27 46/81/27
f 32/82/28 21/40/28 43/83/28
f 20/41/13 27/84/13 25/42/13
f 17/37/11 18/36/11 30/44/11
f 24/45/14 45/66/14 50/46/14
f 29/48/15 34/85/15 40/49/15
f 23/51/16 42/69/16 47/52/16
f 25/42/15 27/84/15 35/54/15
f 43/83/29 21/40/29 31/86/29
f 32/82/30 43/83/31 23/87/32
f 51/56/17 44/88/17 37/57/17
f 36/59/18 37/89/18 38/60/18
f 39/62/19 40/90/19 34/63/19
f 51/65/20 50/46/20 45/66/20
f 48/68/21 47/52/21 42/69/21
f 48/68/22 41/70/22 39/71/22
f 31/50/23 21/40/23 22/39/23
f 28/73/24 20/41/24 19/43/24
s 0
f 18/76/25 26/76/25 19/76/25
f 19/76/25 25/76/25 38/76/25
f 38/76/33 37/76/33 44/76/33
f 19/76/34 38/76/34 44/76/34
f 30/76/25 18/76/25 19/76/25
f 34/76/25 29/76/25 22/76/25
f 48/76/35 33/76/35 34/76/35
f 48/76/36 34/76/36 22/76/36
f 19/76/37 44/76/37 45/76/37
f 19/76/38 45/76/38 24/76/38
f 47/76/39 48/76/39 22/76/39
f 30/76/25 19/76/25 24/76/25
f 24/76/40 47/76/40 22/76/40
s 1
f 51/91/41 36/59/42 35/61/43
f 35/61/43 27/84/30 20/41/44
f 52/77/45 28/78/30 17/92/30
f 35/61/43 20/41/44 52/77/45
f 51/91/41 35/61/43 52/77/45
f 52/77/45 17/92/30 32/82/30
f 43/83/31 31/86/30 40/93/46
f 40/93/46 39/94/47 41/95/48
f 43/83/31 40/93/46 41/95/48
f 50/96/49 51/91/41 52/77/45
f 23/87/32 50/96/49 52/77/45
f 43/83/31 41/95/48 42/97/50
f 23/87/32 52/77/45 32/82/30
f 43/83/31 42/97/50 23/87/32
l 22 49
