# Blender 4.3.0
# www.blender.org
mtllib Greifarm.mtl
o Grappler
v 0.000000 0.000000 -0.125000
v 0.000000 0.000000 0.125000
v -0.250000 -0.250000 0.125000
v -0.250000 -0.250000 -0.125000
v 0.250000 -0.250000 -0.125000
v 0.250000 -0.250000 0.125000
v 0.000000 -0.137995 -0.125000
v 0.000000 -0.137995 0.125000
v -0.119871 -0.500000 0.125000
v -0.086066 0.000000 0.125000
v -0.119871 -0.500000 -0.125000
v -0.086066 0.000000 -0.125000
v 0.119871 -0.500000 0.125000
v 0.086066 0.000000 0.125000
v 0.119871 -0.500000 -0.125000
v 0.086066 0.000000 -0.125000
v 0.062500 -0.411058 0.125000
v 0.062500 -0.500000 0.125000
v -0.062500 -0.500000 -0.125000
v -0.062500 -0.411058 -0.125000
v -0.062500 -0.411058 0.125000
v -0.062500 -0.500000 0.125000
v 0.062500 -0.411058 -0.125000
v 0.062500 -0.500000 -0.125000
v 0.116125 -0.339735 -0.121499
v 0.114460 -0.205509 -0.119517
v 0.249976 -0.250000 -0.124997
v -0.116125 -0.339735 0.121499
v -0.114460 -0.205509 0.119517
v -0.249976 -0.250000 0.124997
v 0.114460 -0.205509 0.119517
v 0.116125 -0.339735 0.121499
v 0.249976 -0.250000 0.124997
v -0.114460 -0.205509 -0.119517
v -0.116125 -0.339735 -0.121499
v -0.249976 -0.250000 -0.124997
vn -0.0000 1.0000 -0.0000
vn -0.0525 0.0394 0.9978
vn 0.8362 0.5484 -0.0000
vn -0.0000 -0.0000 -1.0000
vn -0.0000 -0.0000 1.0000
vn -0.8870 -0.4617 -0.0000
vn 0.0525 0.0394 -0.9978
vn 0.5081 -0.8613 -0.0000
vn -0.0000 -1.0000 -0.0000
vn -0.5081 -0.8613 -0.0000
vn -0.0600 -0.0600 0.9964
vn 0.0525 0.0394 0.9978
vn 0.7993 0.6010 -0.0000
vn 1.0000 -0.0000 -0.0000
vn -1.0000 -0.0000 -0.0000
vn -0.0357 0.0143 -0.9993
vn 0.0357 0.0143 0.9993
vn -0.0357 0.0143 0.9993
vn 0.0357 0.0143 -0.9993
vn 0.9999 -0.0124 -0.0000
vn -0.9999 -0.0124 -0.0000
vn -0.7993 0.6010 -0.0000
vn 0.8870 -0.4617 -0.0000
vn -0.8362 0.5484 -0.0000
vn -0.1027 0.1141 0.9882
vn 0.0652 -0.0000 0.9979
vn 0.1029 -0.0670 -0.9924
vn 0.1419 -0.3168 -0.9378
vn 0.1029 -0.0670 0.9924
vn 0.1419 -0.3168 0.9378
vn -0.1029 -0.0670 -0.9924
vn -0.1419 -0.3168 -0.9378
vn 0.1027 0.1141 -0.9882
vn -0.0652 -0.0000 -0.9979
vn 0.0479 -0.0000 0.9989
vn -0.1015 -0.1874 0.9770
vn -0.1171 0.1364 -0.9837
vn -0.1031 0.0532 -0.9932
vn -0.0652 -0.0000 0.9979
vn 0.1025 0.1139 0.9882
vt 0.793033 0.500000
vt 0.750000 0.750000
vt 0.750000 0.500000
vt 0.500000 0.750000
vt 0.465299 0.821312
vt 0.375000 0.843750
vt 0.706967 0.500000
vt 0.500000 0.500000
vt 0.625000 0.331967
vt 0.588388 0.375000
vt 0.500000 0.250010
vt 0.500000 0.999990
vt 0.588388 0.875000
vt 0.625000 0.918033
vt 0.500000 0.499990
vt 0.625000 0.418033
vt 0.500000 0.250000
vt 0.206967 0.750000
vt 0.500000 0.000000
vt 0.465299 0.321312
vt 0.375000 0.343750
vt 0.706967 0.750000
vt 0.625000 0.049507
vt 0.471261 0.200493
vt 0.625000 0.200493
vt 0.293033 0.750000
vt 0.281250 0.500000
vt 0.293033 0.500000
vt 0.875000 0.549507
vt 0.721261 0.700493
vt 0.875000 0.700493
vt 0.218750 0.500000
vt 0.218750 0.750000
vt 0.625000 0.875000
vt 0.534033 0.820645
vt 0.375000 0.418033
vt 0.442862 0.406250
vt 0.465299 0.928688
vt 0.500000 1.000000
vt 0.375000 0.906250
vt 0.223149 0.549507
vt 0.286612 0.700493
vt 0.286612 0.549507
vt 0.585608 0.225064
vt 0.399703 0.024936
vt 0.399703 0.225064
vt 0.585608 0.524936
vt 0.399703 0.725064
vt 0.585608 0.725064
vt 0.465299 0.428688
vt 0.500000 0.463388
vt 0.500000 0.963388
vt 0.500000 0.786612
vt 0.500000 0.750010
vt 0.500000 0.286612
vt 0.375000 0.200493
vt 0.471261 0.049507
vt 0.375000 0.049507
vt 0.526851 0.700493
vt 0.721261 0.549507
vt 0.526851 0.549507
vt 0.463388 0.549507
vt 0.463388 0.700493
vt 0.625000 0.250000
vt 0.625000 0.000000
vt 0.793033 0.750000
vt 0.375000 0.831967
vt 0.442862 0.843750
vt 0.625000 0.375000
vt 0.534033 0.320645
vt 0.534034 0.929355
vt 0.534034 0.429355
vt 0.206967 0.500000
vt 0.375000 0.331967
vt 0.442862 0.343750
vt 0.281250 0.750000
vt 0.625000 0.831967
vt 0.375000 0.406250
vt 0.442862 0.906250
vt 0.375000 0.918033
vt 0.223149 0.700493
vt 0.585608 0.024936
vt 0.399703 0.524936
s 0
f 12/1/1 2/2/1 1/3/1
f 6/4/2 32/5/2 18/6/2
f 16/7/3 6/4/3 5/8/3
f 12/9/4 7/10/4 36/11/4
f 30/12/5 8/13/5 10/14/5
f 27/15/4 7/10/4 16/16/4
f 4/17/6 9/18/6 3/19/6
f 4/17/7 35/20/7 19/21/7
f 1/3/1 14/22/1 16/7/1
f 8/23/8 34/24/8 7/25/8
f 13/26/9 24/27/9 15/28/9
f 7/29/10 31/30/10 8/31/10
f 9/18/9 19/32/9 22/33/9
f 2/34/11 31/35/11 6/4/11
f 27/15/4 15/36/4 23/37/4
f 28/38/12 3/39/12 22/40/12
f 35/41/13 21/42/13 20/43/13
f 20/44/14 22/45/14 19/46/14
f 23/47/15 18/48/15 17/49/15
f 25/50/16 26/51/16 27/15/16
f 28/38/17 29/52/17 30/12/17
f 31/53/18 32/5/18 33/54/18
f 34/55/19 35/20/19 36/11/19
f 35/56/20 29/57/20 28/58/20
f 32/59/21 26/60/21 25/61/21
f 32/59/22 23/62/22 17/63/22
f 15/28/23 6/4/23 13/26/23
f 12/64/24 3/19/24 10/65/24
f 12/1/1 10/66/1 2/2/1
f 18/6/5 13/67/5 6/4/5
f 6/4/25 33/54/25 32/5/25
f 32/5/26 17/68/26 18/6/26
f 16/7/3 14/22/3 6/4/3
f 36/11/27 4/17/27 12/9/27
f 12/9/4 1/69/4 7/10/4
f 7/10/28 34/70/28 36/11/28
f 10/14/29 3/39/29 30/12/29
f 30/12/30 29/71/30 8/13/30
f 8/13/5 2/34/5 10/14/5
f 16/16/31 5/8/31 27/15/31
f 27/15/32 26/72/32 7/10/32
f 7/10/4 1/69/4 16/16/4
f 4/17/6 11/73/6 9/18/6
f 19/21/4 11/74/4 4/17/4
f 4/17/33 36/11/33 35/20/33
f 35/20/34 20/75/34 19/21/34
f 1/3/1 2/2/1 14/22/1
f 8/23/8 29/57/8 34/24/8
f 13/26/9 18/76/9 24/27/9
f 7/29/10 26/60/10 31/30/10
f 9/18/9 11/73/9 19/32/9
f 6/4/5 14/77/5 2/34/5
f 2/34/35 8/13/35 31/35/35
f 31/35/36 33/54/36 6/4/36
f 23/37/37 25/50/37 27/15/37
f 27/15/38 5/8/38 15/36/38
f 15/36/4 24/78/4 23/37/4
f 22/40/39 21/79/39 28/38/39
f 28/38/40 30/12/40 3/39/40
f 3/39/5 9/80/5 22/40/5
f 35/41/13 28/81/13 21/42/13
f 20/44/14 21/82/14 22/45/14
f 23/47/15 24/83/15 18/48/15
f 35/56/20 34/24/20 29/57/20
f 32/59/21 31/30/21 26/60/21
f 32/59/22 25/61/22 23/62/22
f 15/28/23 5/8/23 6/4/23
f 12/64/24 4/17/24 3/19/24
o Attachement
v 0.000000 0.000000 -0.050000
v 0.000000 0.500000 -0.050000
v 0.035355 0.000000 -0.035355
v 0.035355 0.500000 -0.035355
v 0.050000 0.000000 0.000000
v 0.050000 0.500000 0.000000
v 0.035355 0.000000 0.035355
v 0.035355 0.500000 0.035355
v 0.000000 0.000000 0.050000
v 0.000000 0.500000 0.050000
v -0.035355 0.000000 0.035355
v -0.035355 0.500000 0.035355
v -0.050000 0.000000 0.000000
v -0.050000 0.500000 0.000000
v -0.035355 0.000000 -0.035355
v -0.035355 0.500000 -0.035355
vn 0.3827 -0.0000 -0.9239
vn 0.9239 -0.0000 -0.3827
vn 0.9239 -0.0000 0.3827
vn 0.3827 -0.0000 0.9239
vn -0.3827 -0.0000 0.9239
vn -0.9239 -0.0000 0.3827
vn -0.0000 1.0000 -0.0000
vn -0.9239 -0.0000 -0.3827
vn -0.3827 -0.0000 -0.9239
vn -0.0000 -1.0000 -0.0000
vt 1.000000 1.000000
vt 0.875000 0.500000
vt 1.000000 0.500000
vt 0.875000 1.000000
vt 0.750000 0.500000
vt 0.750000 1.000000
vt 0.625000 0.500000
vt 0.625000 1.000000
vt 0.500000 0.500000
vt 0.500000 1.000000
vt 0.375000 0.500000
vt 0.375000 1.000000
vt 0.250000 0.500000
vt 0.010000 0.250000
vt 0.250000 0.010000
vt 0.490000 0.250000
vt 0.250000 1.000000
vt 0.125000 0.500000
vt 0.125000 1.000000
vt 0.000000 0.500000
vt 0.919706 0.080294
vt 0.580294 0.080294
vt 0.580294 0.419706
vt 0.419706 0.419706
vt 0.250000 0.490000
vt 0.080294 0.419706
vt 0.080294 0.080294
vt 0.419706 0.080294
vt 0.000000 1.000000
vt 0.750000 0.490000
vt 0.919706 0.419706
vt 0.990000 0.250000
vt 0.750000 0.010000
vt 0.510000 0.250000
s 0
f 38/84/41 39/85/41 37/86/41
f 40/87/42 41/88/42 39/85/42
f 42/89/43 43/90/43 41/88/43
f 44/91/44 45/92/44 43/90/44
f 46/93/45 47/94/45 45/92/45
f 48/95/46 49/96/46 47/94/46
f 50/97/47 46/98/47 42/99/47
f 50/100/48 51/101/48 49/96/48
f 52/102/49 37/103/49 51/101/49
f 43/104/50 47/105/50 51/106/50
f 38/84/41 40/87/41 39/85/41
f 40/87/42 42/89/42 41/88/42
f 42/89/43 44/91/43 43/90/43
f 44/91/44 46/93/44 45/92/44
f 46/93/45 48/95/45 47/94/45
f 48/95/46 50/100/46 49/96/46
f 42/99/47 40/107/47 38/108/47
f 38/108/47 52/109/47 50/97/47
f 50/97/47 48/110/47 46/98/47
f 46/98/47 44/111/47 42/99/47
f 42/99/47 38/108/47 50/97/47
f 50/100/48 52/102/48 51/101/48
f 52/102/49 38/112/49 37/103/49
f 51/106/50 37/113/50 39/114/50
f 39/114/50 41/115/50 43/104/50
f 43/104/50 45/116/50 47/105/50
f 47/105/50 49/117/50 51/106/50
f 51/106/50 39/114/50 43/104/50
