# Blender 4.3.2
# www.blender.org
o Verbinfung_Rund_v2
v -0.500000 0.500000 -0.000000
v -0.500000 0.353553 -0.353553
v -0.500000 0.000000 -0.500000
v -0.500000 -0.353553 -0.353553
v -0.500000 -0.500000 -0.000000
v -0.500000 -0.353553 0.353553
v -0.500000 0.000000 0.500000
v -0.500000 0.353553 0.353553
v -0.000000 0.500000 -0.500000
v 0.353553 0.353553 -0.500000
v 0.500000 -0.000000 -0.500000
v 0.353553 -0.353553 -0.500000
v -0.000000 -0.500000 -0.500000
v -0.353553 -0.353553 -0.500000
v -0.500000 -0.000000 -0.500000
v -0.353553 0.353553 -0.500000
v -0.206950 0.500000 -0.047920
v -0.047920 0.500000 -0.206950
v 0.000267 0.353553 0.271750
v 0.271749 0.353553 0.000267
v 0.086100 -0.000000 0.404161
v 0.404161 -0.000000 0.086100
v 0.000267 -0.353553 0.271750
v 0.271749 -0.353553 0.000267
v -0.206950 -0.500000 -0.047920
v -0.047920 -0.500000 -0.206950
v -0.414168 -0.353553 -0.367589
v -0.367589 -0.353553 -0.414168
v -0.500000 0.000000 -0.500000
v -0.500000 -0.000000 -0.500000
v -0.367589 0.353553 -0.414168
v -0.414168 0.353553 -0.367589
vn -1.0000 -0.0000 -0.0000
vn -0.9135 0.3784 -0.1494
vn -0.0000 -0.0000 -1.0000
vn -0.3819 -0.9221 -0.0625
vn 0.3819 -0.9221 0.0625
vn 0.9135 -0.3784 0.1494
vn 0.9135 0.3784 0.1494
vn 0.3819 0.9221 0.0625
vn -0.3819 0.9221 -0.0625
vn 0.2587 0.9307 0.2587
vn 0.0625 0.9221 0.3819
vn 0.6481 0.4000 0.6481
vn 0.1494 0.3784 0.9135
vn 0.6481 -0.4000 0.6481
vn 0.1494 -0.3784 0.9135
vn 0.2587 -0.9307 0.2587
vn 0.0625 -0.9221 0.3819
vn -0.2587 -0.9307 -0.2587
vn -0.0625 -0.9221 -0.3819
vn 0.3511 -0.0000 -0.9363
vn -0.6481 0.4000 -0.6481
vn -0.1494 0.3784 -0.9135
vn -0.2587 0.9307 -0.2587
vn -0.0625 0.9221 -0.3819
vn -0.9135 -0.3784 -0.1494
vn -0.6481 -0.4000 -0.6481
vn -0.1494 -0.3784 -0.9135
vn 0.3629 -0.0000 0.9318
vn 0.0841 -0.0000 -0.9965
vt 0.250000 1.000000
vt 0.458333 1.000000
vt 0.416667 1.000000
vt 0.500000 1.000000
vt 0.000000 1.000000
vt 0.125000 1.000000
vt 0.375000 1.000000
vt 0.625000 1.000000
vt 0.750000 1.000000
vt 0.541667 1.000000
vt 0.583333 1.000000
vt 0.875000 1.000000
vt 0.666667 1.000000
vt 0.333333 1.000000
vt 0.333333 1.000000
vt 0.666667 1.000000
vt 1.000000 1.000000
s 0
f 15/1/1 28/2/1 30/3/1
f 5/4/1 7/1/1 1/5/1
f 16/6/2 30/3/2 31/7/2
f 13/4/3 15/1/3 9/5/3
f 13/4/4 28/2/4 14/7/4
f 12/8/5 26/4/5 13/4/5
f 11/9/6 24/10/6 12/8/6
f 11/9/7 20/8/7 22/11/7
f 10/12/8 18/13/8 20/8/8
f 9/5/9 31/7/9 18/14/9
f 18/13/10 19/7/10 20/8/10
f 17/15/11 8/6/11 19/7/11
f 20/8/12 21/3/12 22/11/12
f 19/7/13 7/1/13 21/3/13
f 22/11/14 23/2/14 24/10/14
f 23/2/15 7/1/15 6/7/15
f 24/10/16 25/4/16 26/4/16
f 25/4/17 6/7/17 5/4/17
f 28/2/18 25/4/18 27/10/18
f 27/10/19 5/4/19 4/8/19
f 30/3/20 27/10/20 29/11/20
f 29/11/1 4/8/1 3/9/1
f 31/7/21 29/11/21 32/8/21
f 32/8/22 3/9/22 2/12/22
f 31/7/23 17/16/23 18/14/23
f 32/8/24 1/17/24 17/16/24
f 15/1/25 14/7/25 28/2/25
f 1/5/1 2/12/1 3/9/1
f 3/9/1 4/8/1 5/4/1
f 5/4/1 6/7/1 7/1/1
f 7/1/1 8/6/1 1/5/1
f 1/5/1 3/9/1 5/4/1
f 16/6/3 15/1/3 30/3/3
f 9/5/3 10/12/3 11/9/3
f 11/9/3 12/8/3 13/4/3
f 13/4/3 14/7/3 15/1/3
f 15/1/3 16/6/3 9/5/3
f 9/5/3 11/9/3 13/4/3
f 13/4/4 26/4/4 28/2/4
f 12/8/5 24/10/5 26/4/5
f 11/9/6 22/11/6 24/10/6
f 11/9/7 10/12/7 20/8/7
f 10/12/8 9/17/8 18/13/8
f 9/5/9 16/6/9 31/7/9
f 18/13/10 17/15/10 19/7/10
f 17/15/11 1/5/11 8/6/11
f 20/8/12 19/7/12 21/3/12
f 19/7/13 8/6/13 7/1/13
f 22/11/14 21/3/14 23/2/14
f 23/2/15 21/3/15 7/1/15
f 24/10/16 23/2/16 25/4/16
f 25/4/17 23/2/17 6/7/17
f 28/2/18 26/4/18 25/4/18
f 27/10/19 25/4/19 5/4/19
f 30/3/26 28/2/26 27/10/26
f 29/11/27 27/10/27 4/8/27
f 31/7/28 30/3/28 29/11/28
f 32/8/29 29/11/29 3/9/29
f 31/7/23 32/8/23 17/16/23
f 32/8/24 2/12/24 1/17/24
