# Blender 4.3.0
# www.blender.org
mtllib Space_Drillv2.mtl
o Cube
v -0.500000 -0.500000 0.500000
v -0.500000 0.500000 0.500000
v -0.500000 -0.500000 -0.500000
v -0.500000 0.500000 -0.500000
v 0.500000 -0.500000 0.500000
v 0.500000 0.500000 0.500000
v 0.500000 -0.500000 -0.500000
v 0.500000 0.500000 -0.500000
l 3 1
l 1 2
l 2 4
l 4 3
l 7 3
l 4 8
l 8 7
l 5 7
l 8 6
l 6 5
l 1 5
l 6 2
o Cylinder.001
v -0.000000 -0.500000 -0.281278
v 0.000000 0.500000 -0.043328
v 0.198893 -0.500000 -0.198893
v 0.030637 0.500000 -0.030637
v 0.281278 -0.500000 0.000000
v 0.043328 0.500000 0.000000
v 0.198893 -0.500000 0.198893
v 0.030637 0.500000 0.030637
v -0.000000 -0.500000 0.281278
v 0.000000 0.500000 0.043328
v -0.198893 -0.500000 0.198893
v -0.030637 0.500000 0.030637
v -0.281278 -0.500000 0.000000
v -0.043328 0.500000 0.000000
v -0.198893 -0.500000 -0.198893
v -0.030637 0.500000 -0.030637
v 0.000000 -0.244283 -0.273023
v 0.000000 0.055522 -0.308409
v 0.000000 0.176362 -0.282807
v 0.000000 0.341979 -0.175312
v 0.000000 0.438125 -0.144751
v 0.102354 0.438125 -0.102354
v 0.123964 0.341979 -0.123964
v 0.199975 0.176362 -0.199975
v 0.218078 0.055522 -0.218078
v 0.193056 -0.244283 -0.193056
v 0.144751 0.438125 -0.000000
v 0.175312 0.341979 0.000000
v 0.282807 0.176362 0.000000
v 0.308409 0.055522 -0.000000
v 0.273023 -0.244283 0.000000
v 0.102354 0.438125 0.102354
v 0.123964 0.341979 0.123964
v 0.199975 0.176362 0.199975
v 0.218078 0.055522 0.218078
v 0.193056 -0.244283 0.193056
v 0.000000 0.438125 0.144751
v 0.000000 0.341979 0.175312
v 0.000000 0.176362 0.282807
v 0.000000 0.055522 0.308409
v 0.000000 -0.244283 0.273023
v -0.102354 0.438125 0.102354
v -0.123964 0.341979 0.123964
v -0.199975 0.176362 0.199975
v -0.218078 0.055522 0.218078
v -0.193056 -0.244283 0.193056
v -0.144751 0.438125 -0.000000
v -0.175312 0.341979 0.000000
v -0.282807 0.176362 0.000000
v -0.308409 0.055522 -0.000000
v -0.273023 -0.244283 0.000000
v -0.102354 0.438125 -0.102354
v -0.123964 0.341979 -0.123964
v -0.199975 0.176362 -0.199975
v -0.218078 0.055522 -0.218078
v -0.193056 -0.244283 -0.193056
v 0.000000 -0.241079 -0.399835
v 0.000000 -0.080753 -0.395884
v 0.279932 -0.080753 -0.279932
v 0.282726 -0.241079 -0.282726
v 0.395884 -0.080753 -0.000000
v 0.399835 -0.241079 0.000000
v 0.279932 -0.080753 0.279932
v 0.282726 -0.241079 0.282726
v 0.000000 -0.080753 0.395884
v 0.000000 -0.241079 0.399835
v -0.279932 -0.080753 0.279932
v -0.282726 -0.241079 0.282726
v -0.395884 -0.080753 -0.000000
v -0.399835 -0.241079 0.000000
v -0.279932 -0.080753 -0.279932
v -0.282726 -0.241079 -0.282726
vn 0.2109 0.8345 -0.5091
vn 0.5091 0.8345 -0.2109
vn 0.5091 0.8345 0.2109
vn 0.2109 0.8345 0.5091
vn -0.2109 0.8345 0.5091
vn -0.5091 0.8345 0.2109
vn -0.0000 1.0000 -0.0000
vn -0.5091 0.8345 -0.2109
vn -0.2109 0.8345 -0.5091
vn -0.0000 -1.0000 -0.0000
vn -0.3825 0.0298 -0.9235
vn -0.3292 0.5101 -0.7946
vn -0.3756 0.1921 -0.9067
vn -0.3282 0.5143 -0.7923
vn -0.3672 0.2818 -0.8864
vn -0.9235 0.0298 -0.3825
vn -0.7946 0.5101 -0.3292
vn -0.9067 0.1921 -0.3756
vn -0.7923 0.5143 -0.3282
vn -0.8864 0.2818 -0.3672
vn -0.9235 0.0298 0.3825
vn -0.7946 0.5101 0.3292
vn -0.9067 0.1921 0.3756
vn -0.7923 0.5143 0.3282
vn -0.8864 0.2818 0.3672
vn -0.3825 0.0298 0.9235
vn -0.3292 0.5101 0.7946
vn -0.3756 0.1921 0.9067
vn -0.3282 0.5143 0.7923
vn -0.3672 0.2818 0.8864
vn 0.3825 0.0298 0.9235
vn 0.3292 0.5101 0.7946
vn 0.3756 0.1921 0.9067
vn 0.3282 0.5143 0.7923
vn 0.3672 0.2818 0.8864
vn 0.9235 0.0298 0.3825
vn 0.7946 0.5101 0.3292
vn 0.9067 0.1921 0.3756
vn 0.7923 0.5143 0.3282
vn 0.8864 0.2818 0.3672
vn 0.9235 0.0298 -0.3825
vn 0.7946 0.5101 -0.3292
vn 0.9067 0.1921 -0.3756
vn 0.7923 0.5143 -0.3282
vn 0.8864 0.2818 -0.3672
vn 0.3825 0.0298 -0.9235
vn 0.3292 0.5101 -0.7946
vn 0.3756 0.1921 -0.9067
vn 0.3282 0.5143 -0.7923
vn 0.3672 0.2818 -0.8864
vn 0.0105 -0.9996 -0.0253
vn 0.3826 0.0228 -0.9236
vn 0.0253 -0.9996 -0.0105
vn 0.9236 0.0228 -0.3826
vn 0.0253 -0.9996 0.0105
vn 0.9236 0.0228 0.3826
vn 0.0105 -0.9996 0.0253
vn 0.3826 0.0228 0.9236
vn -0.0105 -0.9996 0.0253
vn -0.3826 0.0228 0.9236
vn -0.0253 -0.9996 0.0105
vn -0.9236 0.0228 0.3826
vn -0.0253 -0.9996 -0.0105
vn -0.9236 0.0228 -0.3826
vn -0.0105 -0.9996 -0.0253
vn -0.3826 0.0228 -0.9236
vt 1.000000 1.000000
vt 0.875000 0.916667
vt 1.000000 0.916667
vt 0.875000 1.000000
vt 0.750000 0.916667
vt 0.750000 1.000000
vt 0.625000 0.916667
vt 0.625000 1.000000
vt 0.500000 0.916667
vt 0.500000 1.000000
vt 0.375000 0.916667
vt 0.375000 1.000000
vt 0.250000 0.916667
vt 0.010000 0.250000
vt 0.250000 0.010000
vt 0.490000 0.250000
vt 0.250000 1.000000
vt 0.125000 0.916667
vt 0.125000 1.000000
vt 0.000000 0.916667
vt 0.919706 0.080294
vt 0.580294 0.080294
vt 0.580294 0.419706
vt 0.125000 0.583333
vt 0.000000 0.500000
vt 0.125000 0.500000
vt 0.125000 0.666667
vt 0.000000 0.638889
vt 0.125000 0.638889
vt 0.125000 0.750000
vt 0.000000 0.666667
vt 0.125000 0.833333
vt 0.000000 0.750000
vt 0.000000 0.833333
vt 0.250000 0.583333
vt 0.250000 0.500000
vt 0.250000 0.666667
vt 0.250000 0.638889
vt 0.250000 0.750000
vt 0.250000 0.833333
vt 0.375000 0.583333
vt 0.375000 0.500000
vt 0.375000 0.638889
vt 0.375000 0.750000
vt 0.375000 0.666667
vt 0.375000 0.833333
vt 0.500000 0.583333
vt 0.500000 0.500000
vt 0.500000 0.666667
vt 0.500000 0.638889
vt 0.500000 0.750000
vt 0.500000 0.833333
vt 0.625000 0.583333
vt 0.625000 0.500000
vt 0.625000 0.638889
vt 0.625000 0.750000
vt 0.625000 0.666667
vt 0.625000 0.833333
vt 0.750000 0.583333
vt 0.750000 0.500000
vt 0.750000 0.666667
vt 0.750000 0.638889
vt 0.750000 0.750000
vt 0.750000 0.833333
vt 0.875000 0.583333
vt 0.875000 0.500000
vt 0.875000 0.638889
vt 0.875000 0.750000
vt 0.875000 0.666667
vt 0.875000 0.833333
vt 1.000000 0.583333
vt 1.000000 0.500000
vt 1.000000 0.638889
vt 1.000000 0.750000
vt 1.000000 0.666667
vt 1.000000 0.833333
vt 1.000000 0.611111
vt 0.875000 0.611111
vt 0.750000 0.611111
vt 0.625000 0.611111
vt 0.500000 0.611111
vt 0.375000 0.611111
vt 0.250000 0.611111
vt 0.125000 0.611111
vt 0.000000 0.611111
vt 0.000000 0.583333
vt 0.419706 0.419706
vt 0.250000 0.490000
vt 0.080294 0.419706
vt 0.080294 0.080294
vt 0.419706 0.080294
vt 0.000000 1.000000
vt 0.750000 0.490000
vt 0.919706 0.419706
vt 0.990000 0.250000
vt 0.750000 0.010000
vt 0.510000 0.250000
s 0
f 10/1/1 30/2/1 29/3/1
f 12/4/2 35/5/2 30/2/2
f 14/6/3 40/7/3 35/5/3
f 16/8/4 45/9/4 40/7/4
f 18/10/5 50/11/5 45/9/5
f 20/12/6 55/13/6 50/11/6
f 22/14/7 18/15/7 14/16/7
f 22/17/8 60/18/8 55/13/8
f 24/19/9 29/20/9 60/18/9
f 15/21/10 19/22/10 23/23/10
f 64/24/11 9/25/11 23/26/11
f 63/27/12 66/28/12 79/29/12
f 62/30/13 26/31/13 63/27/13
f 61/32/14 27/33/14 62/30/14
f 60/18/15 28/34/15 61/32/15
f 59/35/16 23/26/16 21/36/16
f 58/37/17 79/29/17 77/38/17
f 57/39/18 63/27/18 58/37/18
f 56/40/19 62/30/19 57/39/19
f 55/13/20 61/32/20 56/40/20
f 54/41/21 21/36/21 19/42/21
f 75/43/22 58/37/22 77/38/22
f 52/44/23 58/37/23 53/45/23
f 51/46/24 57/39/24 52/44/24
f 50/11/25 56/40/25 51/46/25
f 49/47/26 19/42/26 17/48/26
f 48/49/27 75/43/27 73/50/27
f 47/51/28 53/45/28 48/49/28
f 46/52/29 52/44/29 47/51/29
f 45/9/30 51/46/30 46/52/30
f 44/53/31 17/48/31 15/54/31
f 71/55/32 48/49/32 73/50/32
f 42/56/33 48/49/33 43/57/33
f 41/58/34 47/51/34 42/56/34
f 41/58/35 45/9/35 46/52/35
f 39/59/36 15/54/36 13/60/36
f 38/61/37 71/55/37 69/62/37
f 37/63/38 43/57/38 38/61/38
f 36/64/39 42/56/39 37/63/39
f 35/5/40 41/58/40 36/64/40
f 34/65/41 13/60/41 11/66/41
f 67/67/42 38/61/42 69/62/42
f 32/68/43 38/61/43 33/69/43
f 31/70/44 37/63/44 32/68/44
f 30/2/45 36/64/45 31/70/45
f 25/71/46 11/66/46 9/72/46
f 66/73/47 33/69/47 67/67/47
f 27/74/48 33/69/48 26/75/48
f 27/74/49 31/70/49 32/68/49
f 28/76/50 30/2/50 31/70/50
f 65/77/51 34/65/51 25/71/51
f 66/73/52 68/78/52 65/77/52
f 68/78/53 39/59/53 34/65/53
f 67/67/54 70/79/54 68/78/54
f 70/79/55 44/53/55 39/59/55
f 70/79/56 71/55/56 72/80/56
f 72/80/57 49/47/57 44/53/57
f 71/55/58 74/81/58 72/80/58
f 74/81/59 54/41/59 49/47/59
f 74/81/60 75/43/60 76/82/60
f 76/82/61 59/35/61 54/41/61
f 75/43/62 78/83/62 76/82/62
f 78/83/63 64/24/63 59/35/63
f 78/83/64 79/29/64 80/84/64
f 64/24/65 65/85/65 25/86/65
f 79/29/66 65/85/66 80/84/66
f 10/1/1 12/4/1 30/2/1
f 12/4/2 14/6/2 35/5/2
f 14/6/3 16/8/3 40/7/3
f 16/8/4 18/10/4 45/9/4
f 18/10/5 20/12/5 50/11/5
f 20/12/6 22/17/6 55/13/6
f 14/16/7 12/87/7 10/88/7
f 10/88/7 24/89/7 22/14/7
f 22/14/7 20/90/7 18/15/7
f 18/15/7 16/91/7 14/16/7
f 14/16/7 10/88/7 22/14/7
f 22/17/8 24/19/8 60/18/8
f 24/19/9 10/92/9 29/20/9
f 23/23/10 9/93/10 11/94/10
f 11/94/10 13/95/10 15/21/10
f 15/21/10 17/96/10 19/22/10
f 19/22/10 21/97/10 23/23/10
f 23/23/10 11/94/10 15/21/10
f 64/24/11 25/86/11 9/25/11
f 63/27/12 26/31/12 66/28/12
f 62/30/13 27/33/13 26/31/13
f 61/32/14 28/34/14 27/33/14
f 60/18/15 29/20/15 28/34/15
f 59/35/16 64/24/16 23/26/16
f 58/37/17 63/27/17 79/29/17
f 57/39/18 62/30/18 63/27/18
f 56/40/19 61/32/19 62/30/19
f 55/13/20 60/18/20 61/32/20
f 54/41/21 59/35/21 21/36/21
f 75/43/22 53/45/22 58/37/22
f 52/44/23 57/39/23 58/37/23
f 51/46/24 56/40/24 57/39/24
f 50/11/25 55/13/25 56/40/25
f 49/47/26 54/41/26 19/42/26
f 48/49/27 53/45/27 75/43/27
f 47/51/28 52/44/28 53/45/28
f 46/52/29 51/46/29 52/44/29
f 45/9/30 50/11/30 51/46/30
f 44/53/31 49/47/31 17/48/31
f 71/55/32 43/57/32 48/49/32
f 42/56/33 47/51/33 48/49/33
f 41/58/34 46/52/34 47/51/34
f 41/58/35 40/7/35 45/9/35
f 39/59/36 44/53/36 15/54/36
f 38/61/37 43/57/37 71/55/37
f 37/63/38 42/56/38 43/57/38
f 36/64/39 41/58/39 42/56/39
f 35/5/40 40/7/40 41/58/40
f 34/65/41 39/59/41 13/60/41
f 67/67/42 33/69/42 38/61/42
f 32/68/43 37/63/43 38/61/43
f 31/70/44 36/64/44 37/63/44
f 30/2/45 35/5/45 36/64/45
f 25/71/46 34/65/46 11/66/46
f 66/73/47 26/75/47 33/69/47
f 27/74/48 32/68/48 33/69/48
f 27/74/49 28/76/49 31/70/49
f 28/76/50 29/3/50 30/2/50
f 65/77/51 68/78/51 34/65/51
f 66/73/52 67/67/52 68/78/52
f 68/78/53 70/79/53 39/59/53
f 67/67/54 69/62/54 70/79/54
f 70/79/55 72/80/55 44/53/55
f 70/79/56 69/62/56 71/55/56
f 72/80/57 74/81/57 49/47/57
f 71/55/58 73/50/58 74/81/58
f 74/81/59 76/82/59 54/41/59
f 74/81/60 73/50/60 75/43/60
f 76/82/61 78/83/61 59/35/61
f 75/43/62 77/38/62 78/83/62
f 78/83/63 80/84/63 64/24/63
f 78/83/64 77/38/64 79/29/64
f 64/24/65 80/84/65 65/85/65
f 79/29/66 66/28/66 65/85/66
